<?xml version="1.0" encoding="utf-8"?>
<!-- Generator: Adobe Illustrator 26.3.1, SVG Export Plug-In . SVG Version: 6.00 Build 0)  -->
<svg version="1.1" xmlns="http://www.w3.org/2000/svg" xmlns:xlink="http://www.w3.org/1999/xlink" x="0px" y="0px"
	 viewBox="0 0 967.39 1338.59" style="enable-background:new 0 0 967.39 1338.59;" xml:space="preserve">
<style type="text/css">
	.st0{opacity:0.15;fill:#FFFFFF;}
</style>
<g id="Layer_1">
	<path class="st0" d="M818.22,630.39l-58.57,29.92c-8.02,4.1-13.4,11.04-14.79,19.05c-1.28,7.44,1.13,15.02,6.6,20.81
		c32.43,34.32,118.58,125.5,80.24,253.21c-13.19,43.96-57.46,153.1-183.31,217.02c-46.21,23.46-119.75,52.58-224.5,34.51l-3.33-0.57
		c-54.88-9.42-146.73-25.17-258.97-165.78c-3.6-4.51-5.09-10.39-4.07-16.12c1.02-5.76,4.45-10.79,9.41-13.8
		c20.65-12.53,42.43-24.45,61.63-34.96c10.96-6,20.74-11.35,28.35-15.77c6.05-3.54,16.49,2.32,28.63,16
		c4.87,5.49,9.69,11.69,14.8,18.25c29.8,38.29,70.63,90.76,191.44,86.1c81.48-3.12,178.18-64.95,192.26-152.01
		c15.32-94.72-64.71-192.92-140.89-277.51l-4.09-4.6l0,0l-0.01-0.01v0l0,0l-19.38-19.34c-14.27-15.97-30.98-34.69-46.8-52.79
		c-14.14-17.89-28.36-37.76-44.41-63.06c-17.22-27.13-22.99-58.53-15.43-84.02c6.18-20.83,20.85-37.05,42.41-46.9
		c29.13-13.3,55.22-14.72,77.57-4.21c53.65,25.21,77.16,112.26,91.21,164.27l1.73,6.38c2.03,7.48,7.67,13.8,15.45,17.36
		c9.16,4.18,20.02,4.07,29.08-0.28l24.63-11.88c1.69-1,169.83-100.29,240.55-134.24c22.53-10.82,34.74-32.01,31.1-54.01
		c-6.78-40.97-53.31-249.67-303.92-335.4C542.32-15.2,384.84-6.85,270.98,46.83C157.94,100.12,60.89,207.29,23.72,319.85
		C-44.96,527.85,93.94,684.82,110,702.03c9.59,10.27,26.06,12.85,39.17,6.16l58.57-29.92c8.01-4.09,13.4-11.04,14.78-19.04
		c1.28-7.44-1.12-15.03-6.59-20.82C183.5,604.09,97.35,512.93,135.68,385.2c13.2-43.96,57.47-153.1,183.32-217.02
		c46.2-23.47,119.76-52.59,224.49-34.51l3.33,0.57c54.88,9.42,146.73,25.17,258.97,165.78c3.6,4.52,5.09,10.4,4.07,16.13
		c-1.02,5.75-4.45,10.78-9.41,13.79c-20.67,12.54-42.46,24.46-61.68,34.98c-10.94,5.99-20.71,11.33-28.32,15.74
		c-6.08,3.53-16.49-2.31-28.62-16c-4.87-5.49-9.69-11.69-14.8-18.26c-29.8-38.29-70.6-90.66-191.43-86.1
		c-81.48,3.13-178.17,64.96-192.26,152.02c-15.31,94.7,64.71,192.92,140.9,277.51l14.57,13.96l0,0l8.76,9.82
		c14.3,16.01,31.06,34.79,46.93,52.93c14.14,17.9,28.37,37.77,44.43,63.08c17.22,27.14,22.98,58.55,15.42,84.03
		c-6.18,20.83-20.85,37.04-42.41,46.89c-29.14,13.3-55.24,14.7-77.57,4.21c-53.65-25.21-77.17-112.27-91.22-164.28l-1.72-6.36
		c-2.03-7.48-7.66-13.8-15.43-17.35c-9.16-4.19-20.04-4.07-29.1,0.27l-24.62,11.87c-1.69,1-169.83,100.29-240.55,134.24
		C9.2,933.97-3,955.17,0.64,977.16c6.78,40.97,53.31,249.67,303.92,335.4c51.03,17.46,108.68,26.02,166.85,26.02
		c79.2-0.01,159.36-15.89,225-46.83c113.04-53.29,210.1-160.46,247.26-273.02c68.67-208-70.21-364.96-86.27-382.18
		C847.81,626.28,831.34,623.7,818.22,630.39z"/>
</g>
<g id="Layer_2">
</g>
</svg>
